<?xml version="1.0" encoding="UTF-8" standalone="no"?>
<!DOCTYPE svg PUBLIC "-//W3C//DTD SVG 1.1//EN" "http://www.w3.org/Graphics/SVG/1.1/DTD/svg11.dtd">
<svg width="100%" height="100%" viewBox="0 0 1749 390" version="1.1" xmlns="http://www.w3.org/2000/svg" xmlns:xlink="http://www.w3.org/1999/xlink" xml:space="preserve" xmlns:serif="http://www.serif.com/" style="fill-rule:evenodd;clip-rule:evenodd;stroke-linejoin:round;stroke-miterlimit:2;">
    <g transform="matrix(1,0,0,1,-505.953,-2434.52)">
        <g transform="matrix(1.1,0,0,1,-49.5869,0)">
            <g transform="matrix(300,0,0,300,495.869,2662.85)">
                <path d="M0.43,-0.72C0.491,-0.72 0.548,-0.71 0.602,-0.689C0.656,-0.668 0.702,-0.64 0.74,-0.605L0.69,-0.545C0.652,-0.58 0.612,-0.606 0.571,-0.622C0.529,-0.637 0.485,-0.645 0.44,-0.645C0.406,-0.645 0.375,-0.639 0.346,-0.627C0.317,-0.616 0.293,-0.598 0.272,-0.574C0.251,-0.55 0.234,-0.52 0.223,-0.483C0.211,-0.446 0.205,-0.401 0.205,-0.35C0.205,-0.297 0.211,-0.252 0.223,-0.215C0.235,-0.177 0.252,-0.146 0.273,-0.122C0.294,-0.097 0.32,-0.079 0.35,-0.068C0.381,-0.056 0.414,-0.05 0.45,-0.05C0.48,-0.05 0.506,-0.053 0.528,-0.058C0.549,-0.063 0.567,-0.07 0.582,-0.077C0.599,-0.085 0.614,-0.094 0.625,-0.105L0.625,-0.295L0.495,-0.295L0.495,-0.36L0.77,-0.36L0.77,-0.085C0.745,-0.065 0.717,-0.047 0.684,-0.032C0.656,-0.019 0.622,-0.007 0.581,0.004C0.54,0.015 0.493,0.02 0.44,0.02C0.38,0.02 0.326,0.012 0.278,-0.004C0.23,-0.02 0.189,-0.044 0.155,-0.075C0.121,-0.106 0.095,-0.145 0.077,-0.191C0.059,-0.237 0.05,-0.29 0.05,-0.35C0.05,-0.41 0.059,-0.463 0.077,-0.509C0.095,-0.555 0.121,-0.594 0.154,-0.625C0.187,-0.656 0.227,-0.68 0.274,-0.696C0.321,-0.712 0.373,-0.72 0.43,-0.72Z" style="fill:rgb(51,54,66);fill-rule:nonzero;"/>
            </g>
        </g>
        <g transform="matrix(300,0,0,300,766.469,2662.85)">
            <path d="M0.45,-0.65C0.416,-0.65 0.384,-0.644 0.355,-0.632C0.325,-0.62 0.299,-0.602 0.277,-0.577C0.255,-0.552 0.237,-0.521 0.225,-0.484C0.212,-0.446 0.205,-0.401 0.205,-0.35C0.205,-0.299 0.212,-0.254 0.225,-0.217C0.237,-0.179 0.255,-0.148 0.277,-0.123C0.299,-0.098 0.325,-0.08 0.355,-0.068C0.384,-0.056 0.416,-0.05 0.45,-0.05C0.484,-0.05 0.516,-0.056 0.546,-0.068C0.575,-0.08 0.601,-0.098 0.623,-0.123C0.645,-0.148 0.663,-0.179 0.676,-0.217C0.689,-0.254 0.695,-0.299 0.695,-0.35C0.695,-0.401 0.689,-0.446 0.676,-0.484C0.663,-0.521 0.645,-0.552 0.623,-0.577C0.601,-0.602 0.575,-0.62 0.546,-0.632C0.516,-0.644 0.484,-0.65 0.45,-0.65ZM0.45,-0.72C0.51,-0.72 0.565,-0.712 0.614,-0.696C0.663,-0.68 0.705,-0.656 0.74,-0.625C0.775,-0.594 0.802,-0.555 0.821,-0.509C0.84,-0.463 0.85,-0.41 0.85,-0.35C0.85,-0.29 0.84,-0.237 0.821,-0.191C0.802,-0.145 0.775,-0.106 0.74,-0.075C0.705,-0.044 0.663,-0.02 0.614,-0.004C0.565,0.012 0.51,0.02 0.45,0.02C0.39,0.02 0.335,0.012 0.286,-0.004C0.237,-0.02 0.195,-0.044 0.16,-0.075C0.125,-0.106 0.098,-0.145 0.079,-0.191C0.059,-0.237 0.05,-0.29 0.05,-0.35C0.05,-0.41 0.059,-0.463 0.079,-0.509C0.098,-0.555 0.125,-0.594 0.16,-0.625C0.195,-0.656 0.237,-0.68 0.286,-0.696C0.335,-0.712 0.39,-0.72 0.45,-0.72Z" style="fill:rgb(51,54,66);fill-rule:nonzero;"/>
        </g>
        <g transform="matrix(300,0,0,300,1036.47,2662.85)">
            <path d="M0.45,-0.65C0.416,-0.65 0.384,-0.644 0.355,-0.632C0.325,-0.62 0.299,-0.602 0.277,-0.577C0.255,-0.552 0.237,-0.521 0.225,-0.484C0.212,-0.446 0.205,-0.401 0.205,-0.35C0.205,-0.299 0.212,-0.254 0.225,-0.217C0.237,-0.179 0.255,-0.148 0.277,-0.123C0.299,-0.098 0.325,-0.08 0.355,-0.068C0.384,-0.056 0.416,-0.05 0.45,-0.05C0.484,-0.05 0.516,-0.056 0.546,-0.068C0.575,-0.08 0.601,-0.098 0.623,-0.123C0.645,-0.148 0.663,-0.179 0.676,-0.217C0.689,-0.254 0.695,-0.299 0.695,-0.35C0.695,-0.401 0.689,-0.446 0.676,-0.484C0.663,-0.521 0.645,-0.552 0.623,-0.577C0.601,-0.602 0.575,-0.62 0.546,-0.632C0.516,-0.644 0.484,-0.65 0.45,-0.65ZM0.45,-0.72C0.51,-0.72 0.565,-0.712 0.614,-0.696C0.663,-0.68 0.705,-0.656 0.74,-0.625C0.775,-0.594 0.802,-0.555 0.821,-0.509C0.84,-0.463 0.85,-0.41 0.85,-0.35C0.85,-0.29 0.84,-0.237 0.821,-0.191C0.802,-0.145 0.775,-0.106 0.74,-0.075C0.705,-0.044 0.663,-0.02 0.614,-0.004C0.565,0.012 0.51,0.02 0.45,0.02C0.39,0.02 0.335,0.012 0.286,-0.004C0.237,-0.02 0.195,-0.044 0.16,-0.075C0.125,-0.106 0.098,-0.145 0.079,-0.191C0.059,-0.237 0.05,-0.29 0.05,-0.35C0.05,-0.41 0.059,-0.463 0.079,-0.509C0.098,-0.555 0.125,-0.594 0.16,-0.625C0.195,-0.656 0.237,-0.68 0.286,-0.696C0.335,-0.712 0.39,-0.72 0.45,-0.72Z" style="fill:rgb(51,54,66);fill-rule:nonzero;"/>
        </g>
        <g transform="matrix(1.1,0,0,1,-130.647,0)">
            <g transform="matrix(300,0,0,300,1306.47,2662.85)">
                <path d="M0.4,-0.7C0.46,-0.7 0.515,-0.693 0.564,-0.678C0.613,-0.663 0.655,-0.64 0.69,-0.611C0.725,-0.582 0.752,-0.545 0.771,-0.501C0.79,-0.458 0.8,-0.407 0.8,-0.35C0.8,-0.293 0.79,-0.242 0.771,-0.199C0.752,-0.155 0.725,-0.118 0.69,-0.089C0.655,-0.06 0.613,-0.038 0.564,-0.023C0.515,-0.008 0.46,0 0.4,0L0.07,0L0.07,-0.7L0.4,-0.7ZM0.215,-0.625L0.215,-0.075L0.4,-0.075C0.434,-0.075 0.466,-0.08 0.496,-0.091C0.525,-0.101 0.551,-0.117 0.573,-0.14C0.595,-0.162 0.613,-0.19 0.625,-0.225C0.639,-0.26 0.645,-0.301 0.645,-0.35C0.645,-0.399 0.639,-0.44 0.625,-0.475C0.613,-0.51 0.595,-0.538 0.573,-0.561C0.551,-0.583 0.525,-0.599 0.496,-0.61C0.466,-0.62 0.434,-0.625 0.4,-0.625L0.215,-0.625Z" style="fill:rgb(51,54,66);fill-rule:nonzero;"/>
            </g>
        </g>
        <g transform="matrix(1.1,0,0,1,-158.367,0)">
            <g transform="matrix(300,0,0,300,1583.67,2662.85)">
                <path d="M0.465,-0.45L0.345,-0.45C0.3,-0.45 0.265,-0.438 0.241,-0.413C0.217,-0.389 0.205,-0.353 0.205,-0.305L0.205,0L0.065,0L0.065,-0.305C0.065,-0.373 0.086,-0.426 0.13,-0.464C0.172,-0.501 0.234,-0.52 0.315,-0.52L0.465,-0.52L0.465,-0.45Z" style="fill:rgb(92,98,121);fill-rule:nonzero;"/>
            </g>
            <g transform="matrix(300,0,0,300,1726.17,2662.85)">
                <path d="M0.215,0L0.075,0L0.075,-0.51L0.215,-0.51L0.215,0ZM0.22,-0.645C0.22,-0.625 0.213,-0.608 0.2,-0.593C0.186,-0.578 0.168,-0.57 0.145,-0.57C0.122,-0.57 0.104,-0.578 0.091,-0.593C0.077,-0.608 0.07,-0.625 0.07,-0.645C0.07,-0.665 0.077,-0.683 0.091,-0.698C0.104,-0.713 0.122,-0.72 0.145,-0.72C0.167,-0.72 0.185,-0.713 0.199,-0.698C0.213,-0.683 0.22,-0.665 0.22,-0.645Z" style="fill:rgb(92,98,121);fill-rule:nonzero;"/>
            </g>
            <g transform="matrix(300,0,0,300,1813.17,2662.85)">
                <path d="M0.43,0L0.21,0L0.01,-0.52L0.15,-0.52L0.315,-0.085L0.325,-0.085L0.49,-0.52L0.63,-0.52L0.43,0Z" style="fill:rgb(92,98,121);fill-rule:nonzero;"/>
            </g>
            <g transform="matrix(300,0,0,300,1999.71,2662.85)">
                <path d="M0.37,-0.05C0.403,-0.05 0.433,-0.056 0.462,-0.067C0.49,-0.078 0.518,-0.094 0.545,-0.115L0.585,-0.055C0.572,-0.044 0.558,-0.033 0.541,-0.024C0.524,-0.015 0.505,-0.007 0.486,-0.001C0.466,0.006 0.445,0.011 0.424,0.014C0.403,0.018 0.381,0.02 0.36,0.02C0.313,0.02 0.27,0.014 0.231,0.001C0.192,-0.011 0.158,-0.029 0.131,-0.053C0.104,-0.076 0.083,-0.105 0.068,-0.14C0.053,-0.175 0.045,-0.215 0.045,-0.26C0.045,-0.305 0.052,-0.344 0.067,-0.38C0.081,-0.414 0.101,-0.444 0.127,-0.468C0.152,-0.491 0.183,-0.509 0.218,-0.522C0.253,-0.534 0.292,-0.54 0.335,-0.54C0.375,-0.54 0.413,-0.534 0.448,-0.522C0.483,-0.51 0.514,-0.493 0.54,-0.469C0.566,-0.447 0.587,-0.419 0.602,-0.386C0.617,-0.353 0.625,-0.316 0.625,-0.275L0.625,-0.205L0.198,-0.205C0.206,-0.15 0.225,-0.11 0.256,-0.086C0.286,-0.062 0.324,-0.05 0.37,-0.05ZM0.335,-0.475C0.316,-0.475 0.298,-0.471 0.281,-0.464C0.264,-0.457 0.25,-0.445 0.237,-0.429C0.225,-0.413 0.215,-0.392 0.207,-0.367C0.2,-0.342 0.196,-0.311 0.195,-0.275L0.475,-0.275C0.475,-0.31 0.471,-0.34 0.463,-0.365C0.455,-0.39 0.445,-0.411 0.432,-0.428C0.419,-0.444 0.404,-0.456 0.387,-0.464C0.37,-0.471 0.352,-0.475 0.335,-0.475Z" style="fill:rgb(92,98,121);fill-rule:nonzero;"/>
            </g>
        </g>
    </g>
    <g transform="matrix(1.33485,0,0,1.2135,-162.584,-2741.82)">
        <g transform="matrix(82.406,0,0,82.406,238.546,2559.97)">
            <path d="M0.255,-0.245L0.565,-0.245L0.415,-0.615L0.405,-0.615L0.255,-0.245ZM0.525,-0.7L0.81,0L0.666,0L0.6,-0.17L0.22,-0.17L0.154,0L0.01,0L0.295,-0.7L0.525,-0.7Z" style="fill:rgb(36,38,50);fill-rule:nonzero;"/>
        </g>
        <g transform="matrix(82.406,0,0,82.406,304.621,2559.97)">
            <path d="M0.07,-0.52L0.21,-0.52L0.21,-0.205C0.21,-0.157 0.222,-0.123 0.246,-0.102C0.27,-0.081 0.305,-0.07 0.35,-0.07L0.48,-0.07L0.48,-0.52L0.62,-0.52L0.62,0L0.35,0C0.255,0 0.184,-0.017 0.139,-0.051C0.093,-0.086 0.07,-0.137 0.07,-0.205L0.07,-0.52Z" style="fill:rgb(36,38,50);fill-rule:nonzero;"/>
        </g>
        <g transform="matrix(82.406,0,0,82.406,361.481,2559.97)">
            <path d="M0.115,-0.45L0.02,-0.45L0.02,-0.52L0.115,-0.52L0.115,-0.68L0.255,-0.68L0.255,-0.52L0.41,-0.52L0.41,-0.45L0.255,-0.45L0.255,-0.19C0.255,-0.165 0.258,-0.143 0.264,-0.126C0.269,-0.108 0.277,-0.094 0.286,-0.083C0.296,-0.071 0.307,-0.063 0.32,-0.058C0.333,-0.053 0.346,-0.05 0.36,-0.05C0.38,-0.05 0.399,-0.053 0.418,-0.059C0.437,-0.066 0.452,-0.073 0.465,-0.08L0.495,-0.015C0.475,-0.005 0.452,0.003 0.427,0.01C0.401,0.017 0.375,0.02 0.35,0.02C0.275,0.02 0.217,0.001 0.176,-0.036C0.135,-0.073 0.115,-0.125 0.115,-0.19L0.115,-0.45Z" style="fill:rgb(36,38,50);fill-rule:nonzero;"/>
        </g>
        <g transform="matrix(82.406,0,0,82.406,400.849,2559.97)">
            <path d="M0.35,-0.045C0.371,-0.045 0.391,-0.049 0.41,-0.057C0.429,-0.065 0.445,-0.078 0.459,-0.095C0.473,-0.112 0.484,-0.134 0.493,-0.161C0.501,-0.188 0.505,-0.221 0.505,-0.26C0.505,-0.299 0.501,-0.332 0.493,-0.359C0.484,-0.386 0.473,-0.408 0.459,-0.426C0.445,-0.443 0.429,-0.455 0.41,-0.463C0.391,-0.471 0.371,-0.475 0.35,-0.475C0.329,-0.475 0.309,-0.471 0.29,-0.463C0.271,-0.455 0.255,-0.443 0.241,-0.426C0.227,-0.408 0.216,-0.386 0.207,-0.359C0.199,-0.332 0.195,-0.299 0.195,-0.26C0.195,-0.221 0.199,-0.188 0.207,-0.161C0.216,-0.134 0.227,-0.112 0.241,-0.095C0.255,-0.078 0.271,-0.065 0.29,-0.057C0.309,-0.049 0.329,-0.045 0.35,-0.045ZM0.35,-0.54C0.395,-0.54 0.436,-0.534 0.473,-0.522C0.511,-0.509 0.543,-0.491 0.57,-0.468C0.597,-0.444 0.618,-0.414 0.632,-0.38C0.648,-0.344 0.655,-0.305 0.655,-0.26C0.655,-0.215 0.648,-0.175 0.632,-0.14C0.618,-0.105 0.597,-0.076 0.57,-0.053C0.543,-0.029 0.511,-0.011 0.473,0.001C0.436,0.014 0.395,0.02 0.35,0.02C0.305,0.02 0.263,0.014 0.226,0.001C0.189,-0.011 0.157,-0.029 0.13,-0.053C0.103,-0.076 0.083,-0.105 0.068,-0.14C0.053,-0.175 0.045,-0.215 0.045,-0.26C0.045,-0.305 0.053,-0.344 0.068,-0.38C0.083,-0.414 0.103,-0.444 0.13,-0.468C0.157,-0.491 0.189,-0.509 0.226,-0.522C0.263,-0.534 0.305,-0.54 0.35,-0.54Z" style="fill:rgb(36,38,50);fill-rule:nonzero;"/>
        </g>
        <g transform="matrix(82.406,0,0,82.406,487.375,2559.97)">
            <path d="M0.43,-0.7C0.48,-0.7 0.525,-0.695 0.565,-0.684C0.604,-0.673 0.638,-0.657 0.665,-0.635C0.692,-0.615 0.713,-0.589 0.728,-0.559C0.743,-0.528 0.75,-0.494 0.75,-0.455C0.75,-0.416 0.743,-0.382 0.728,-0.352C0.713,-0.321 0.692,-0.296 0.665,-0.275C0.638,-0.254 0.604,-0.237 0.565,-0.227C0.525,-0.216 0.48,-0.21 0.43,-0.21L0.215,-0.21L0.215,0L0.07,0L0.07,-0.7L0.43,-0.7ZM0.215,-0.625L0.215,-0.285L0.43,-0.285C0.483,-0.285 0.524,-0.299 0.553,-0.327C0.582,-0.354 0.596,-0.397 0.596,-0.455C0.596,-0.513 0.582,-0.556 0.553,-0.584C0.524,-0.611 0.483,-0.625 0.43,-0.625L0.215,-0.625Z" style="fill:rgb(36,38,50);fill-rule:nonzero;"/>
        </g>
        <g transform="matrix(82.406,0,0,82.406,550.228,2559.97)">
            <path d="M0.185,-0.165C0.185,-0.102 0.223,-0.07 0.3,-0.07L0.44,-0.07L0.44,-0.26L0.3,-0.26C0.223,-0.26 0.185,-0.228 0.185,-0.165ZM0.44,-0.33C0.44,-0.378 0.428,-0.413 0.403,-0.436C0.378,-0.459 0.345,-0.47 0.305,-0.47C0.275,-0.47 0.246,-0.466 0.217,-0.457C0.188,-0.448 0.163,-0.435 0.14,-0.42L0.105,-0.48C0.12,-0.49 0.136,-0.499 0.154,-0.506C0.171,-0.513 0.189,-0.52 0.208,-0.525C0.227,-0.53 0.245,-0.533 0.264,-0.536C0.282,-0.539 0.299,-0.54 0.315,-0.54C0.358,-0.54 0.395,-0.535 0.428,-0.525C0.461,-0.515 0.488,-0.501 0.511,-0.482C0.534,-0.463 0.551,-0.441 0.563,-0.416C0.574,-0.39 0.58,-0.361 0.58,-0.33L0.58,0L0.3,0C0.209,0 0.142,-0.014 0.1,-0.041C0.057,-0.068 0.035,-0.11 0.035,-0.165C0.035,-0.22 0.057,-0.262 0.1,-0.289C0.142,-0.316 0.209,-0.33 0.3,-0.33L0.44,-0.33Z" style="fill:rgb(36,38,50);fill-rule:nonzero;"/>
        </g>
        <g transform="matrix(82.406,0,0,82.406,603.38,2559.97)">
            <path d="M0.465,-0.45L0.345,-0.45C0.3,-0.45 0.265,-0.438 0.241,-0.413C0.217,-0.389 0.205,-0.353 0.205,-0.305L0.205,0L0.065,0L0.065,-0.305C0.065,-0.373 0.086,-0.426 0.13,-0.464C0.172,-0.501 0.234,-0.52 0.315,-0.52L0.465,-0.52L0.465,-0.45Z" style="fill:rgb(36,38,50);fill-rule:nonzero;"/>
        </g>
        <g transform="matrix(82.406,0,0,82.406,642.523,2559.97)">
            <path d="M0.115,-0.45L0.02,-0.45L0.02,-0.52L0.115,-0.52L0.115,-0.68L0.255,-0.68L0.255,-0.52L0.41,-0.52L0.41,-0.45L0.255,-0.45L0.255,-0.19C0.255,-0.165 0.258,-0.143 0.264,-0.126C0.269,-0.108 0.277,-0.094 0.286,-0.083C0.296,-0.071 0.307,-0.063 0.32,-0.058C0.333,-0.053 0.346,-0.05 0.36,-0.05C0.38,-0.05 0.399,-0.053 0.418,-0.059C0.437,-0.066 0.452,-0.073 0.465,-0.08L0.495,-0.015C0.475,-0.005 0.452,0.003 0.427,0.01C0.401,0.017 0.375,0.02 0.35,0.02C0.275,0.02 0.217,0.001 0.176,-0.036C0.135,-0.073 0.115,-0.125 0.115,-0.19L0.115,-0.45Z" style="fill:rgb(36,38,50);fill-rule:nonzero;"/>
        </g>
        <g transform="matrix(82.406,0,0,82.406,682.64,2559.97)">
            <path d="M0.19,-0.41C0.19,-0.395 0.197,-0.381 0.211,-0.368C0.224,-0.355 0.247,-0.344 0.28,-0.335L0.435,-0.29C0.483,-0.276 0.52,-0.257 0.546,-0.233C0.572,-0.209 0.585,-0.178 0.585,-0.14C0.585,-0.116 0.58,-0.094 0.57,-0.075C0.56,-0.055 0.544,-0.038 0.521,-0.024C0.498,-0.01 0.469,0.001 0.433,0.008C0.397,0.016 0.353,0.02 0.3,0.02C0.273,0.02 0.246,0.018 0.22,0.014C0.193,0.01 0.168,0.004 0.145,-0.003C0.121,-0.01 0.099,-0.018 0.08,-0.027C0.061,-0.035 0.044,-0.045 0.03,-0.055L0.07,-0.115C0.098,-0.098 0.131,-0.083 0.169,-0.07C0.206,-0.057 0.25,-0.05 0.3,-0.05C0.35,-0.05 0.385,-0.057 0.405,-0.07C0.425,-0.083 0.435,-0.1 0.435,-0.12C0.435,-0.135 0.428,-0.149 0.414,-0.162C0.4,-0.174 0.375,-0.185 0.34,-0.195L0.185,-0.24C0.142,-0.253 0.108,-0.271 0.081,-0.295C0.054,-0.318 0.04,-0.35 0.04,-0.39C0.04,-0.411 0.045,-0.431 0.055,-0.45C0.064,-0.468 0.079,-0.484 0.1,-0.497C0.121,-0.51 0.147,-0.521 0.179,-0.529C0.211,-0.536 0.25,-0.54 0.295,-0.54C0.35,-0.54 0.401,-0.533 0.446,-0.518C0.491,-0.502 0.527,-0.485 0.555,-0.465L0.515,-0.405C0.488,-0.422 0.457,-0.438 0.422,-0.451C0.387,-0.464 0.345,-0.47 0.295,-0.47C0.26,-0.47 0.233,-0.464 0.216,-0.453C0.199,-0.442 0.19,-0.427 0.19,-0.41Z" style="fill:rgb(36,38,50);fill-rule:nonzero;"/>
        </g>
        <g transform="matrix(82.406,0,0,82.406,762.161,2559.97)">
            <path d="M0.08,-0.55C0.08,-0.574 0.085,-0.596 0.095,-0.617C0.105,-0.638 0.12,-0.656 0.141,-0.671C0.162,-0.686 0.188,-0.698 0.219,-0.707C0.25,-0.716 0.287,-0.72 0.33,-0.72C0.373,-0.72 0.41,-0.716 0.441,-0.707C0.472,-0.698 0.498,-0.686 0.519,-0.671C0.54,-0.656 0.555,-0.638 0.565,-0.617C0.575,-0.596 0.58,-0.574 0.58,-0.55C0.58,-0.526 0.575,-0.504 0.566,-0.484C0.557,-0.464 0.544,-0.446 0.529,-0.429C0.513,-0.411 0.495,-0.396 0.474,-0.383C0.454,-0.369 0.433,-0.356 0.41,-0.345L0.58,-0.205C0.59,-0.225 0.598,-0.248 0.605,-0.273C0.612,-0.298 0.615,-0.323 0.615,-0.35L0.715,-0.35C0.715,-0.31 0.71,-0.273 0.7,-0.238C0.69,-0.204 0.675,-0.173 0.655,-0.145L0.745,-0.07L0.675,0.02L0.575,-0.06C0.542,-0.035 0.504,-0.015 0.46,-0.001C0.416,0.013 0.368,0.02 0.315,0.02C0.266,0.02 0.224,0.015 0.189,0.004C0.153,-0.006 0.123,-0.02 0.1,-0.037C0.076,-0.054 0.058,-0.073 0.047,-0.094C0.036,-0.115 0.03,-0.137 0.03,-0.16C0.03,-0.186 0.035,-0.209 0.044,-0.23C0.053,-0.25 0.066,-0.268 0.082,-0.284C0.098,-0.3 0.117,-0.314 0.138,-0.327C0.159,-0.339 0.181,-0.35 0.205,-0.36C0.189,-0.373 0.173,-0.386 0.158,-0.399C0.143,-0.412 0.129,-0.427 0.118,-0.442C0.107,-0.457 0.098,-0.474 0.091,-0.492C0.084,-0.509 0.08,-0.529 0.08,-0.55ZM0.335,-0.05C0.37,-0.05 0.403,-0.056 0.432,-0.068C0.461,-0.079 0.487,-0.095 0.51,-0.114L0.29,-0.295C0.26,-0.28 0.235,-0.26 0.215,-0.237C0.195,-0.214 0.185,-0.188 0.185,-0.16C0.185,-0.146 0.188,-0.133 0.195,-0.119C0.202,-0.107 0.212,-0.095 0.225,-0.085C0.237,-0.074 0.253,-0.066 0.272,-0.059C0.29,-0.053 0.311,-0.05 0.335,-0.05ZM0.33,-0.415C0.36,-0.432 0.384,-0.453 0.403,-0.476C0.421,-0.5 0.43,-0.525 0.43,-0.55C0.43,-0.583 0.421,-0.608 0.403,-0.627C0.384,-0.646 0.36,-0.655 0.33,-0.655C0.3,-0.655 0.276,-0.646 0.258,-0.627C0.239,-0.608 0.23,-0.583 0.23,-0.55C0.23,-0.525 0.239,-0.5 0.258,-0.476C0.276,-0.453 0.3,-0.432 0.33,-0.415Z" style="fill:rgb(36,38,50);fill-rule:nonzero;"/>
        </g>
        <g transform="matrix(82.406,0,0,82.406,853.22,2559.97)">
            <path d="M0.67,-0.65L0.826,-0.095L0.836,-0.095L1.005,-0.7L1.15,-0.7L0.955,0L0.74,0L0.59,-0.535L0.58,-0.535L0.43,0L0.215,0L0.02,-0.7L0.165,-0.7L0.334,-0.095L0.344,-0.095L0.5,-0.65L0.67,-0.65Z" style="fill:rgb(36,38,50);fill-rule:nonzero;"/>
        </g>
        <g transform="matrix(82.406,0,0,82.406,946.638,2559.97)">
            <path d="M0.35,-0.045C0.371,-0.045 0.391,-0.049 0.41,-0.057C0.429,-0.065 0.445,-0.078 0.459,-0.095C0.473,-0.112 0.484,-0.134 0.493,-0.161C0.501,-0.188 0.505,-0.221 0.505,-0.26C0.505,-0.299 0.501,-0.332 0.493,-0.359C0.484,-0.386 0.473,-0.408 0.459,-0.426C0.445,-0.443 0.429,-0.455 0.41,-0.463C0.391,-0.471 0.371,-0.475 0.35,-0.475C0.329,-0.475 0.309,-0.471 0.29,-0.463C0.271,-0.455 0.255,-0.443 0.241,-0.426C0.227,-0.408 0.216,-0.386 0.207,-0.359C0.199,-0.332 0.195,-0.299 0.195,-0.26C0.195,-0.221 0.199,-0.188 0.207,-0.161C0.216,-0.134 0.227,-0.112 0.241,-0.095C0.255,-0.078 0.271,-0.065 0.29,-0.057C0.309,-0.049 0.329,-0.045 0.35,-0.045ZM0.35,-0.54C0.395,-0.54 0.436,-0.534 0.473,-0.522C0.511,-0.509 0.543,-0.491 0.57,-0.468C0.597,-0.444 0.618,-0.414 0.632,-0.38C0.648,-0.344 0.655,-0.305 0.655,-0.26C0.655,-0.215 0.648,-0.175 0.632,-0.14C0.618,-0.105 0.597,-0.076 0.57,-0.053C0.543,-0.029 0.511,-0.011 0.473,0.001C0.436,0.014 0.395,0.02 0.35,0.02C0.305,0.02 0.263,0.014 0.226,0.001C0.189,-0.011 0.157,-0.029 0.13,-0.053C0.103,-0.076 0.083,-0.105 0.068,-0.14C0.053,-0.175 0.045,-0.215 0.045,-0.26C0.045,-0.305 0.053,-0.344 0.068,-0.38C0.083,-0.414 0.103,-0.444 0.13,-0.468C0.157,-0.491 0.189,-0.509 0.226,-0.522C0.263,-0.534 0.305,-0.54 0.35,-0.54Z" style="fill:rgb(36,38,50);fill-rule:nonzero;"/>
        </g>
        <g transform="matrix(82.406,0,0,82.406,1004.32,2559.97)">
            <path d="M0.465,-0.45L0.345,-0.45C0.3,-0.45 0.265,-0.438 0.241,-0.413C0.217,-0.389 0.205,-0.353 0.205,-0.305L0.205,0L0.065,0L0.065,-0.305C0.065,-0.373 0.086,-0.426 0.13,-0.464C0.172,-0.501 0.234,-0.52 0.315,-0.52L0.465,-0.52L0.465,-0.45Z" style="fill:rgb(36,38,50);fill-rule:nonzero;"/>
        </g>
        <g transform="matrix(82.406,0,0,82.406,1043.47,2559.97)">
            <path d="M0.315,-0.23L0.21,-0.23L0.21,0L0.07,0L0.07,-0.7L0.21,-0.7L0.21,-0.3L0.315,-0.3L0.47,-0.52L0.62,-0.52L0.445,-0.27L0.63,0L0.47,0L0.315,-0.23Z" style="fill:rgb(36,38,50);fill-rule:nonzero;"/>
        </g>
        <g transform="matrix(82.406,0,0,82.406,1096.21,2559.97)">
            <path d="M0.19,-0.41C0.19,-0.395 0.197,-0.381 0.211,-0.368C0.224,-0.355 0.247,-0.344 0.28,-0.335L0.435,-0.29C0.483,-0.276 0.52,-0.257 0.546,-0.233C0.572,-0.209 0.585,-0.178 0.585,-0.14C0.585,-0.116 0.58,-0.094 0.57,-0.075C0.56,-0.055 0.544,-0.038 0.521,-0.024C0.498,-0.01 0.469,0.001 0.433,0.008C0.397,0.016 0.353,0.02 0.3,0.02C0.273,0.02 0.246,0.018 0.22,0.014C0.193,0.01 0.168,0.004 0.145,-0.003C0.121,-0.01 0.099,-0.018 0.08,-0.027C0.061,-0.035 0.044,-0.045 0.03,-0.055L0.07,-0.115C0.098,-0.098 0.131,-0.083 0.169,-0.07C0.206,-0.057 0.25,-0.05 0.3,-0.05C0.35,-0.05 0.385,-0.057 0.405,-0.07C0.425,-0.083 0.435,-0.1 0.435,-0.12C0.435,-0.135 0.428,-0.149 0.414,-0.162C0.4,-0.174 0.375,-0.185 0.34,-0.195L0.185,-0.24C0.142,-0.253 0.108,-0.271 0.081,-0.295C0.054,-0.318 0.04,-0.35 0.04,-0.39C0.04,-0.411 0.045,-0.431 0.055,-0.45C0.064,-0.468 0.079,-0.484 0.1,-0.497C0.121,-0.51 0.147,-0.521 0.179,-0.529C0.211,-0.536 0.25,-0.54 0.295,-0.54C0.35,-0.54 0.401,-0.533 0.446,-0.518C0.491,-0.502 0.527,-0.485 0.555,-0.465L0.515,-0.405C0.488,-0.422 0.457,-0.438 0.422,-0.451C0.387,-0.464 0.345,-0.47 0.295,-0.47C0.26,-0.47 0.233,-0.464 0.216,-0.453C0.199,-0.442 0.19,-0.427 0.19,-0.41Z" style="fill:rgb(36,38,50);fill-rule:nonzero;"/>
        </g>
        <g transform="matrix(82.406,0,0,82.406,1146.89,2559.97)">
            <path d="M0.62,0L0.48,0L0.48,-0.315C0.48,-0.363 0.468,-0.398 0.444,-0.419C0.42,-0.44 0.385,-0.45 0.34,-0.45L0.21,-0.45L0.21,0L0.07,0L0.07,-0.7L0.21,-0.7L0.21,-0.52L0.34,-0.52C0.435,-0.52 0.506,-0.503 0.552,-0.469C0.597,-0.434 0.62,-0.383 0.62,-0.315L0.62,0Z" style="fill:rgb(36,38,50);fill-rule:nonzero;"/>
        </g>
        <g transform="matrix(82.406,0,0,82.406,1203.33,2559.97)">
            <path d="M0.35,-0.045C0.371,-0.045 0.391,-0.049 0.41,-0.057C0.429,-0.065 0.445,-0.078 0.459,-0.095C0.473,-0.112 0.484,-0.134 0.493,-0.161C0.501,-0.188 0.505,-0.221 0.505,-0.26C0.505,-0.299 0.501,-0.332 0.493,-0.359C0.484,-0.386 0.473,-0.408 0.459,-0.426C0.445,-0.443 0.429,-0.455 0.41,-0.463C0.391,-0.471 0.371,-0.475 0.35,-0.475C0.329,-0.475 0.309,-0.471 0.29,-0.463C0.271,-0.455 0.255,-0.443 0.241,-0.426C0.227,-0.408 0.216,-0.386 0.207,-0.359C0.199,-0.332 0.195,-0.299 0.195,-0.26C0.195,-0.221 0.199,-0.188 0.207,-0.161C0.216,-0.134 0.227,-0.112 0.241,-0.095C0.255,-0.078 0.271,-0.065 0.29,-0.057C0.309,-0.049 0.329,-0.045 0.35,-0.045ZM0.35,-0.54C0.395,-0.54 0.436,-0.534 0.473,-0.522C0.511,-0.509 0.543,-0.491 0.57,-0.468C0.597,-0.444 0.618,-0.414 0.632,-0.38C0.648,-0.344 0.655,-0.305 0.655,-0.26C0.655,-0.215 0.648,-0.175 0.632,-0.14C0.618,-0.105 0.597,-0.076 0.57,-0.053C0.543,-0.029 0.511,-0.011 0.473,0.001C0.436,0.014 0.395,0.02 0.35,0.02C0.305,0.02 0.263,0.014 0.226,0.001C0.189,-0.011 0.157,-0.029 0.13,-0.053C0.103,-0.076 0.083,-0.105 0.068,-0.14C0.053,-0.175 0.045,-0.215 0.045,-0.26C0.045,-0.305 0.053,-0.344 0.068,-0.38C0.083,-0.414 0.103,-0.444 0.13,-0.468C0.157,-0.491 0.189,-0.509 0.226,-0.522C0.263,-0.534 0.305,-0.54 0.35,-0.54Z" style="fill:rgb(36,38,50);fill-rule:nonzero;"/>
        </g>
        <g transform="matrix(82.406,0,0,82.406,1261.02,2559.97)">
            <path d="M0.21,-0.45L0.21,-0.07L0.335,-0.07C0.358,-0.07 0.379,-0.074 0.398,-0.081C0.417,-0.087 0.433,-0.099 0.447,-0.114C0.46,-0.129 0.471,-0.149 0.478,-0.173C0.486,-0.197 0.49,-0.226 0.49,-0.26C0.49,-0.294 0.486,-0.323 0.478,-0.347C0.471,-0.371 0.46,-0.391 0.447,-0.406C0.433,-0.421 0.417,-0.433 0.398,-0.44C0.379,-0.447 0.358,-0.45 0.335,-0.45L0.21,-0.45ZM0.335,-0.52C0.381,-0.52 0.423,-0.514 0.461,-0.502C0.498,-0.49 0.53,-0.473 0.557,-0.45C0.584,-0.427 0.604,-0.4 0.619,-0.368C0.633,-0.336 0.64,-0.3 0.64,-0.26C0.64,-0.22 0.633,-0.184 0.619,-0.152C0.604,-0.12 0.584,-0.093 0.557,-0.07C0.53,-0.047 0.498,-0.03 0.461,-0.018C0.423,-0.006 0.381,0 0.335,0L0.21,0L0.21,0.18L0.07,0.18L0.07,-0.52L0.335,-0.52Z" style="fill:rgb(36,38,50);fill-rule:nonzero;"/>
        </g>
    </g>
</svg>
